<?xml version="1.0" encoding="utf-8"?>
<!-- Generator: Adobe Illustrator 22.1.0, SVG Export Plug-In . SVG Version: 6.00 Build 0)  -->
<svg version="1.1" id="_x31__12_" xmlns="http://www.w3.org/2000/svg" xmlns:xlink="http://www.w3.org/1999/xlink" x="0px" y="0px"
	 viewBox="0 0 850.4 850.4" style="enable-background:new 0 0 850.4 850.4;" xml:space="preserve">
<style type="text/css">
	.st0{fill:#CF9855;}
	.st1{fill:#D3A25D;}
	.st2{fill:#E7BC74;}
	.st3{opacity:0.6;}
	.st4{fill:#DBA956;}
	.st5{fill:#FFF2C9;}
	.st6{fill:#F9D975;}
	.st7{opacity:0.3;fill:#F9D976;}
	.st8{fill:#FCE195;}
	.st9{opacity:0.5;fill:#FCE195;}
	.st10{fill:#C99C6B;}
	.st11{fill:#BAB3B2;}
	.st12{fill:#BFB8B6;}
	.st13{fill:#BDB3AC;}
	.st14{opacity:0.7;fill:#C3BDBD;}
</style>
<g>
	<path class="st0" d="M27.8,412.6c5.8,22.9,171.7,207.5,220.8,215.7c39.2,6.5,475.8-185.9,492.7-220.8c2.7-5.6,1.6-32.9,0-43.9
		c-9.5-63.6-130.5-153.9-175-157.7c-47.3-4-414.5,80.6-543.2,130.7C19,338.2,22,389.9,27.8,412.6z"/>
	<path class="st1" d="M249,628.3c12.3-41.4-6.7-83.1-29.2-118c-21.4-33.2-47.3-62.8-73.6-92.1c-27.4-30.7-53.1-63.3-81.3-93.4
		c-0.7-0.8-1.5-1.6-2.2-2.3c-14.8,4.9-28.1,9.6-39.6,14.1c-4,1.6-1.1,53.3,4.7,76c5.8,22.9,171.7,207.5,220.8,215.7
		C248.7,628.3,248.8,628.3,249,628.3z"/>
	<path class="st2" d="M23.1,336.6c-13.4,30.7,188.5,242.5,230.8,245c45.8,2.7,468.3-175.1,485.7-209.7
		c17.5-34.8-121.8-210.3-174.6-215.5C506.8,150.6,38.8,300.6,23.1,336.6z"/>
	<g class="st3">
		<path class="st4" d="M232.7,500c49.2-20.7,87.3-56.9,122.2-92.1c88.7-89.8,176.3-135.5,292.6-153c10-1.5,19.8-2.8,29.4-4
			c-1.5-1.9-3-3.7-4.6-5.6c-8.4,1.1-17,2.2-25.7,3.5c-117.7,17.7-206.3,63.9-296.1,154.7c-34.5,34.8-72.1,70.5-120.2,90.8
			c-11.1,4.7-20.8,8-30.3,11.2c-11.9,4.1-22.7,7.7-33.2,13.1c1.6,1.5,3.2,3,4.8,4.5c9.7-4.7,19.5-8.1,30.4-11.8
			C211.5,508.1,221.4,504.7,232.7,500z"/>
		<path class="st4" d="M133.4,470.6c21.1-61.4,37.7-109.9,105.1-151.7c111.8-69.5,251.4-115.4,384.3-126.3c-2.1-1.9-4.2-3.8-6.3-5.6
			c-132,11.9-270.2,57.7-381.2,126.7c-69.2,43-87,94.9-107.7,155L125,476c-0.1,0.4-0.2,0.7-0.3,1.1c1.6,1.7,3.3,3.4,4.9,5.1
			c0.3-1.3,0.7-2.7,1.2-4.1L133.4,470.6z"/>
		<path class="st4" d="M291.9,403.3c14.2-11.5,28-23.7,39.7-37.7c7.4-8.9,28.4-31.5,5.5-31.5c-36.6,0-70.7,26.6-99.7,46.1
			c-21.6,14.5-42.8,29.7-62.4,46.8c-13.6,12-35.7,29.5-37.6,49.2c-0.5,5.6,1.3,10.3,5.4,13.9c2.8,2.4,6.5,3.7,11,3.7
			c27.4,0,83.6-44.5,129.6-83.3C287.1,407.2,290,404.8,291.9,403.3z M153.8,487.6c-3,0-5.4-0.7-7-2.1c-2.6-2.3-3.7-5.1-3.3-8.8
			c2-20.4,28.8-39.8,43.2-51.8c22.2-18.5,48-36.1,72.3-51.4c23.5-14.8,48.9-33.4,78-33.4c1.5,0,3,0.1,4.5,0.2
			c-14,24.3-33.9,42.3-53.6,58.2c-1.9,1.5-4.8,4-8.6,7.2C252.9,428.1,182.4,487.6,153.8,487.6z"/>
		<path class="st4" d="M197,437.3c-1.4-3.6-5.1-4.9-11.6-1.8c0.2-0.2,0.4-0.4,0.4-0.5c-7.8,5.2-27.4,13.5-23.9,25.9
			c1.4,4.8,6.4,7.9,12.6,7.9c0.5,0,1.1,0,1.6-0.1C190.8,467.5,200.5,446,197,437.3z M175.3,460.6c-5.4,0.8-9.4-1.6-6.9-7.6
			c1.6-3.7,23.7-16.1,23.8-11.6C192.4,452.8,182.6,459.6,175.3,460.6z"/>
		<path class="st4" d="M453.7,190.2c42-8.6,82.7-18.8,122.5-30.8c-4-1.7-7.8-2.7-11.2-3.1c-36.6,10.8-74.1,20-112.6,27.9
			C370.1,201,281,240.3,214.3,289.3c-45.4,33.4-98.6,84.3-123,151.7c1.5,1.7,3.1,3.4,4.6,5.2C144.8,304,332.6,214.9,453.7,190.2z"/>
		<path class="st4" d="M166.4,284.1c11.4-6.1,22.1-11.9,31.3-17.3c7.8-4.5,15.7-9.6,24.1-14.9c2.4-1.5,4.8-3.1,7.3-4.6
			c-8.6,2.9-17,5.9-25.4,8.8c-3.1,1.9-6.1,3.7-9,5.4c-9.1,5.3-19.8,11-31.1,17.2c-42.8,23.1-97.3,52.5-129.3,89.2
			c1.1,1.8,2.2,3.5,3.4,5.4C68.6,336.9,123.5,307.2,166.4,284.1z"/>
		<path class="st4" d="M178.5,296.7c8.6-6.8,26.2-15.6,44.9-24.9c30.1-15,63.4-31.6,77-48.2c-4.3,1.4-8.5,2.7-12.8,4.1
			c-15.8,13-43.4,26.8-67,38.5c-19.7,9.8-36.8,18.4-45.9,25.5c-36.1,28.5-58.5,65-75.5,96.9c-6.9,12.8-13.2,25.9-19.3,39
			c1.4,1.7,2.9,3.4,4.4,5.1c6.4-13.9,13.1-27.8,20.4-41.3C121.3,360.3,143.2,324.4,178.5,296.7z"/>
		<path class="st4" d="M118.6,332.9c-3.6-5.4-12.9-3.4-19.6-1.4c-12.4,3.7-29.3,23.1-50.3,57.5c1.3,1.7,2.6,3.5,4,5.3
			c25.4-42.3,40.1-54.5,48.1-56.9c8.9-2.6,12.2-1.9,12.7-1.1c3.9,5.9-23.5,38.6-39.8,58c-3.7,4.4-7.4,8.8-10.8,13
			c1.3,1.6,2.6,3.2,3.9,4.9c3.7-4.6,7.7-9.3,11.6-13.9C107.4,363.7,124.5,342,118.6,332.9z"/>
		<path class="st4" d="M382.6,437.9c7.8-8.6,15.2-16.8,21.8-23.6c58.7-61.5,128.6-80.3,215.6-89.4c21.3-2.2,44.1-2.3,66.1-2.4
			c13.2-0.1,26.5-0.1,39.8-0.6c-1.1-2-2.2-4-3.3-6c-12.2,0.4-24.4,0.5-36.5,0.5c-22.2,0.1-45.1,0.2-66.7,2.4
			c-88.3,9.3-159.4,28.3-219.3,91.2c-6.6,6.9-14,15.1-21.9,23.8c-42.8,47.1-103.8,114.3-164.3,125.3c2.2,1.7,4.4,3.4,6.5,4.9
			C281,549.8,340.4,484.3,382.6,437.9z"/>
		<path class="st4" d="M372.9,511.9c-15,15.6-28.9,31.6-41.9,48.5c3.5-1.2,7.2-2.5,10.8-3.8c11.2-14,22.9-27.4,35.5-40.4
			c65.1-67.6,196.9-176.7,361.1-166.4c-0.7-2-1.4-4.1-2.3-6.3C570.7,334.4,438.4,443.9,372.9,511.9z"/>
		<path class="st4" d="M568,397.2c-3.9,2.1-8,4.2-12.4,6.5c-53.5,28.2-139.5,73.6-162.4,133.5c2.6-1,5.2-2,7.9-3.1
			c24.9-55.2,106.2-98.1,157.4-125c4.4-2.3,8.5-4.5,12.4-6.6c57.7-30.8,104.6-28.8,160.2-22.2c2.6-2,4.6-3.8,6.1-5.4
			C678.2,367.8,629.3,364.6,568,397.2z"/>
		<path class="st4" d="M540.8,437c-32.2,18.6-62.2,44.5-89.7,77.3c4.2-1.7,8.4-3.4,12.6-5.2c24.9-27.9,51.7-50.3,80.2-66.8
			c41.1-23.8,103.6-43.3,146.8-37.1c2.9-1.6,5.8-3.2,8.5-4.7C649.1,389.1,577.8,415.6,540.8,437z"/>
		<path class="st4" d="M101.7,294.3c-23.1,19.1-48.7,35.6-78.9,49.2c0.4,1.8,0.9,3.8,1.8,6c37.8-17,68.3-38.6,94.5-62.1
			C113.1,289.7,107.3,292,101.7,294.3z"/>
		<path class="st4" d="M506.5,490.9l0.2,0.1c3.1-1.3,6.2-2.6,9.3-4c21.5-32,67.3-48.5,110.6-49.7c4.3-2,8.4-4,12.5-6
			C591.6,429.6,530.8,445,506.5,490.9z"/>
		<path class="st4" d="M606,284.6c-3.7,4.2-4.9,9.1-3.6,14.4c2.1,8.9,15.7,12.2,36.1,12.2c20.3,0,47.3-3.3,76.4-7.8
			c-1.2-1.9-2.4-3.8-3.6-5.7c-44,6.7-99.9,12.8-102.9-0.1c-0.8-3.4,0-6.3,2.3-9.1c10.9-12.7,50.9-16.8,81.9-17.5c-1.5-2-3-4-4.5-6
			C657,266,618.1,270.4,606,284.6z"/>
		<path class="st4" d="M512.6,255.2l-0.7,2.8l2.7,0.8c5.2,1.6,10.7,2.3,16.4,2.3c20.7,0,44.2-8.9,63.8-16.4c6.9-2.6,13.4-5.1,19.2-7
			c14.6-4.7,28.6-8.5,42-11.2c-1.6-1.8-3.2-3.5-4.7-5.2c-12.6,2.7-25.6,6.2-39.1,10.6c-6,2-12.6,4.5-19.5,7.1
			c-23.2,8.8-51.8,19.7-73.4,14.8c12.1-38.8,70.9-47.7,118.7-46.5c-2.1-2.1-4.1-4.2-6.2-6.1C582,200.9,523.1,212.2,512.6,255.2z"/>
	</g>
	<g>
		<path class="st5" d="M303.8,170.4c5.1-3.4,179.5-71.7,193.2-67.5c20.2,6.2,156.4,134.9,161.7,159.7c5.3,24.7-0.6,79.3-5.3,94.8
			c-4.6,15.5-172.8,96-180.2,99.7c-10,5-179.9-154.7-188-179C279,259.5,293.9,176.9,303.8,170.4z"/>
		<path class="st5" d="M658.6,262.6c-0.4-1.8-1.4-4.2-3.1-7c-23.1,12.5-46.8,24.4-69.4,37.8c-18.7,11.1-39.3,19.3-58.1,30.7
			c-12.3,7.4-27.3,14.1-40.4,20.2c-14.4,6.7-19.7-2.8-29-12.6c-24.2-25.2-45.2-52.1-68-78.3c-25.8-29.7-55.9-55.9-82.1-85.3
			c-2.7,1.1-4.4,1.9-4.8,2.2c-2.4,1.6-5,7.6-7.6,16.1c29.7,37.7,67.1,68.9,99,105c7,7.9,47.9,60,70.1,75.2
			c12.6,9.5,41.1-11.2,64.9-22.8c22.6-11.1,45.2-22.3,67.9-33.3c20.8-10.1,41.6-20,62.6-29.6C660.3,274,659.7,267.7,658.6,262.6z"/>
		<path class="st6" d="M659,264.6c-14.2,6.7-29.9,11.4-43.3,18.6c-30.6,16.4-57.5,32.3-88.8,47.3c-15.7,7.6-45.8,27.7-51.9,28.4
			c-11.2,1.2-9.9,4.5-12.6,7.6c-7.3,31.1,10.5,90.7,10.9,90.5c7.4-3.7,175.5-84.2,180.2-99.7C657.9,342.3,663.6,290.2,659,264.6z"/>
		<path class="st7" d="M659,264.6c-0.3,0.1-0.6,0.2-0.8,0.4c3.6,32.2-12.5,71.7-40.9,97c-32.4,28.9-124.2,79.7-142.6,65.9
			c3.6,19.7-1.8,29.2-1.5,29.1c7.4-3.7,175.5-84.2,180.2-99.7C657.9,342.3,663.6,290.2,659,264.6z"/>
		<path class="st8" d="M303.8,170.4c10.8,4.7,159.7,176.1,170.2,187.2c6.2,6.5,10.5,78.3-0.8,99.5c-6.9,13-179.9-154.7-188-179
			C279,259.5,292.9,165.7,303.8,170.4z"/>
		<path class="st9" d="M476.8,365.8c1.3,15.4,0.3,36.7-1.3,49.1c-1.9,14.2-3.4,44.3-2.3,42.2C482.5,439.4,481.1,386.8,476.8,365.8z"
			/>
	</g>
	<g>
		<path class="st5" d="M249.7,194.2c6.1-4,36-16.8,49.1,1.2C331.9,241,431.1,379.1,435,397.9c2.7,12.9-7.7,81.3-15,88.5
			c-7,6.8-30.6,15.1-41,12.4c-10.7-2.8-137.1-182.7-142.3-207.2C232.9,272.7,240,200.6,249.7,194.2z"/>
		<path class="st5" d="M249.7,194.2c6.1-4,36-16.8,49.1,1.2C331.9,241,431.1,379.1,435,397.9c0.1,15.8-7.7,81.3-15,88.5
			c-7,6.8-30.6,15.1-41,12.4c-10.7-2.8-137.1-182.7-142.3-207.2C232.9,272.7,240,200.6,249.7,194.2z"/>
		<path class="st5" d="M412.2,404.2c-4.6,1.6-11.4,3.3-13.9-2.3c-4.3-9.6-13.3-21.5-20.2-32.2c-12.7-19.8-26.5-42.9-40.6-61.3
			c-15.5-20.3-29.2-40.3-42.8-62c-11.8-18.9-28.5-35.3-38.2-55.6c-3.1,1.3-5.5,2.5-6.8,3.4c-9.7,6.4-16.8,78.5-12.9,97.3
			c5.1,24.6,131.6,204.4,142.3,207.2c10.4,2.7,34-5.5,41-12.4c7.3-7.1,15-72.7,15-88.5c-0.2-0.9-0.6-1.9-1.1-3.3
			C428.3,397.6,420.2,401.4,412.2,404.2z"/>
		<path class="st6" d="M413.4,407.6c-5,1.2-15.6,6.1-23.8,0.9c-22.1-14.2-12.8,52.6-20.4,76.7c-0.3,0.9-0.7,1.6-1.1,2.2
			c5.5,6.7,9.3,10.8,10.9,11.2c10.4,2.7,34-5.5,41-12.4c7-6.9,16.9-70.3,15.2-86.7C428.8,401.9,420.2,406,413.4,407.6z"/>
		<path class="st7" d="M409.6,478.8c-13.9,2.7-26.8-4-37.4-12.6c-0.5,7.4-1.4,14.1-2.9,19c-0.3,0.9-0.7,1.6-1.1,2.2
			c5.5,6.7,9.3,10.8,10.9,11.2c10.4,2.7,34-5.5,41-12.4c1.8-1.7,3.7-7.1,5.7-14.5C421,475.2,415.7,477.6,409.6,478.8z"/>
		<path class="st8" d="M249.7,194.2c10.1,5.8,141.1,202.6,145.6,216.9c0.5,14.3-3.7,63.3-15.9,87.9c-4.8,9.8-137.4-183-142.6-207.5
			C232.9,272.7,239.6,188.4,249.7,194.2z"/>
		<path class="st9" d="M378.3,499.2c0.5,0.2,0.9,0.1,1.1-0.2c8.9-18.2,13.6-49.7,15.2-70.7C390.4,453.3,380.8,483.2,378.3,499.2z"/>
	</g>
	<g>
		<path class="st5" d="M171.7,247.5c11.1-5.9,37.8-13.9,45.8-1.5c8.3,12.8,22.9,34,34.6,53.2c41,67.4,93,149.4,98.5,171.2
			c2.9,11.7-22.7,80.8-29.9,88c-8.1,8-41.3,6.5-52.1,6.1c-11.7-0.5-119.6-194-130.3-215.4C138.2,333.9,162.7,262.4,171.7,247.5z"/>
		<path class="st5" d="M170.5,252.7c5.8,21.5,17.5,42.3,28,62c10.5,19.7,21.1,39.5,31.9,59c21.3,38.7,41.1,78,61.3,117.3
			c10.3-0.3,20.6,1,31-0.1c8.5-0.9,16.9-1.9,25.4-2.8c2.1-8.3,3.2-14.8,2.5-17.8c-0.4-1.5-16.3,1.7-23.1,2.5
			c-9.7,1.2-25.2,3.2-28.1,1.4c-9.2-14.8-18.1-47.8-29.9-70.4c-6.6-12.8-14-25.5-21.2-37.9c-5.5-9.5-12.1-18.1-18.1-27.4
			c-6.4-9.9-10.5-21.5-15.5-32.2c-5.4-11.6-30.6-64.4-43-58.9c-0.9,0.4-1.7,1.2-2.7,2.3C169.7,250.6,170.2,251.5,170.5,252.7z"/>
		<path class="st6" d="M328.3,476.7c-10.8,0.4-20.3,1.5-31.1,1.8c-0.7,0-2.5,1.1-3.1,1c-11.7,25.6-22.3,51.6-35.1,76.5
			c4.6,5.3,8,8.3,9.5,8.4c10.8,0.4,44,1.9,52.1-6.1c6.7-6.6,29.3-66.7,30.1-84.6C343.5,475.9,336.2,476.5,328.3,476.7z"/>
		<path class="st7" d="M264,546.1c-1.6,3.3-3.3,6.7-5,10c4.6,5.3,8,8.3,9.5,8.4c10.8,0.4,44,1.9,52.1-6.1c5.1-5,19.3-40.8,26.2-65.6
			C331.3,525.7,296,561.8,264,546.1z"/>
		<path class="st8" d="M171.7,247.5c10.3-1.3,32,50.2,38.2,61.5c31.5,57.8,60.3,100.5,87.3,169.5c1.2,14.6-20.3,82-28.8,85.9
			c-11.7-0.5-125.7-184-130.3-215.4C138.2,333.9,160.4,253.2,171.7,247.5z"/>
		<path class="st8" d="M154.1,291.5c5-15.4,10.7-30.6,23.5-40.8c-2.2-2.2-4.2-3.4-5.9-3.2c-8.8,4.4-24.3,54.7-30.7,83.6
			C145.3,317.9,149.8,304.7,154.1,291.5z"/>
		<path class="st9" d="M297.3,478.6c-1.1-2.9-2.3-5.7-3.4-8.4c-1.1,33.2-10.5,65.1-26.6,93.8c0.5,0.3,0.9,0.5,1.2,0.5
			C276.9,560.6,298.4,493.1,297.3,478.6z"/>
	</g>
</g>
<g>
	<path class="st10" d="M579.6,590.4l-10.2,5.9l34.7,65.3l28.8-9.6l0.2-9.3c0,0-5.8-8.3,1.9-12.8c11.8-6.7,130.2-30.5,169.5-54.7
		c16.2-10,20.4-25.8,19.4-34.4c-3-26-23.3-31-43.3-24.2C757.1,524.7,579.6,590.4,579.6,590.4z"/>
	<path class="st1" d="M609.5,650.1c4.3-9.4,2.2-15.1-1.9-24.2c-5.8-13.2-12.9-25.7-19.1-38.7c-5.7,2.1-8.9,3.3-8.9,3.3l-10.2,5.9
		l34,63.6C603.4,659.9,608.2,653,609.5,650.1z"/>
	<path class="st2" d="M579.6,590.4l29.9,59.6l23.6-7.3c0,0-5.1-19,2.7-23.5c14.3-8.2,121.9-24.9,165.4-51.5
		c8.8-5.3,21.2-18.1,19.9-34.7c-1.4-17.6-22.1-22.7-40.5-16.4C757.1,524.7,579.6,590.4,579.6,590.4z"/>
	<g>
		<path class="st4" d="M706.2,562.9c-7.4,9.5-9.2,16.1-5.7,20.3c2.6,3,8,4,15.2,3.6c27.9-1.6,81.7-24.1,89.7-28.4
			c3.7-2,7.5-4.2,11.2-6.3c1.1-2,2.1-4.1,2.9-6.4c-5.4,3.3-10.7,6.3-16,9.2c-16.9,9.1-90.7,36.6-99.9,25.7c-2.1-2.4,0-7.8,5.8-15.2
			c18.2-23.5,56.4-35.9,90.1-46.8c2.7-0.9,5.3-1.7,7.9-2.6c-2.4-0.8-5-1.4-7.7-1.7c-0.5,0.1-0.9,0.3-1.4,0.4
			C764,525.9,725.1,538.5,706.2,562.9z"/>
		<path class="st4" d="M727.8,558.2c-0.4,2.8,0.8,4.4,1.9,5.2c1.7,1.4,4.6,1.8,8.4,1.6c11.8-0.7,32.4-8,53.5-16.3
			c2.3-0.9,4.1-1.6,5.3-2.1c9.1-3.4,17.1-7.1,24.2-11.4c0-0.7,0-1.4,0-2.2c-0.1-0.8-0.2-1.5-0.3-2.3c-7.4,4.6-15.7,8.6-25.3,12.1
			c-1.2,0.5-3.1,1.2-5.4,2.1c-34.3,13.4-53.8,18.5-58,15.2c-0.2-0.2-0.6-0.5-0.4-1.5c1.7-12.4,56.2-30.3,83.9-37.8
			c-1.1-1.1-2.4-2.1-3.8-2.9C784.7,525.6,729.9,542.7,727.8,558.2z"/>
		<path class="st4" d="M704.4,555c7.8-6.5,15.9-13.1,24.4-19.6c-3.9,1.4-8,2.9-12.1,4.4c-5,4-9.9,8.1-14.8,12.1
			c-25.3,20.8-49.1,40.5-83.2,52.6c-9,3.2-18.1,5.8-28,8l1.8,3.7c9.7-2.2,18.6-4.7,27.5-7.9C654.7,596,678.8,576.1,704.4,555z"/>
		<path class="st4" d="M702.7,545c-4.5,1.7-9.1,3.3-13.6,5c-2.1,1.5-4.2,3-6.3,4.5c-20.4,14.6-66.1,44.9-97.1,47.9l1.9,3.8
			c30.6-3.7,72.6-30.6,97.5-48.5C690.9,553.6,696.8,549.3,702.7,545z"/>
		<path class="st4" d="M637.3,569.1c-7.7,3.7-15.5,6.6-23.2,8.6c-7.6,2.8-14.3,5.3-19.7,7.3c21.4-1.3,44.2-9.9,65.2-24.1
			C651.9,563.7,644.5,566.4,637.3,569.1z"/>
		<path class="st4" d="M665,595.3c-7,3-14,6.9-20.8,10.6c-15.3,8.4-31.1,17.1-48.2,17.2l2,3.9c0.3,0,0.7,0,1,0
			c16.9-0.9,32.3-9.4,47.2-17.6c7-3.9,13.7-7.5,20.4-10.4c17.2-7.4,42.5-9.1,64.6-4.7c2.7-0.7,5.3-1.5,8-2.2
			C714.8,585.6,684.8,586.9,665,595.3z"/>
		<path class="st4" d="M604.7,640.5c7.6-4.8,17.2-6.9,26.8-8.2c-0.1-1.3-0.1-2.7,0-4.1c-10.1,1.4-20.4,3.5-28.7,8.6L604.7,640.5z"/>
		<path class="st4" d="M656.6,612.8c2.5-0.6,5.2-1.3,8-2c10.1-7.6,23.7-9.2,37.1-8.9c4.2-1,8.4-2.1,12.7-3.2
			C694.4,596.8,670.7,596.7,656.6,612.8z"/>
	</g>
	<path class="st11" d="M574.6,593.9c0,0-196.5,80.8-209.1,85.5c-28.7,10.9-46.6,35.9-51,40.8c10.7,14.9,63.9,15.3,104.6,3
		c28.2-8.5,90.9-33.5,182.5-73.9L574.6,593.9z"/>
	<path class="st12" d="M574.6,593.9c0,0-196.5,80.8-209.1,85.5c-28.7,10.9-46.6,35.9-51,40.8c14.6,11.8,64.2,10.8,104.8-1.4
		c28.2-8.5,89.3-32.3,181-72.7L574.6,593.9z"/>
	<path class="st12" d="M630.9,603.6c0.3,5.1-3.7,9.5-8.8,9.8c-5.2,0.3-9.5-3.6-9.8-8.8c-0.3-5.1,3.6-9.5,8.8-9.8
		C626.2,594.5,630.6,598.4,630.9,603.6z"/>
	<path class="st13" d="M626,595.9c1.9,1.7,1.9,5.7,1.3,7.7c-1.9,5.9-9.1,7.5-14.3,3.8c1.4,3.7,5,6.2,9.2,5.9c5.1-0.3,9-4.7,8.8-9.8
		C630.7,600.2,628.8,597.4,626,595.9z"/>
	<path class="st12" d="M796.7,543.1c0.3,4.8-3.4,8.8-8.1,9.1c-4.8,0.3-8.9-3.4-9.1-8.1c-0.3-4.8,3.4-8.8,8.1-9.1
		C792.4,534.7,796.5,538.3,796.7,543.1z"/>
	<path class="st13" d="M792.2,536c0.5,1.2,1,2.4,0.9,3.7c-0.1,1.5-0.3,2.9-1,4.2c-1.4,2.5-4,4.6-7,4.6c-1.9,0-3.6-0.6-5-1.6
		c1.4,3.2,4.7,5.4,8.4,5.2c4.8-0.3,8.4-4.3,8.1-9.1C796.5,540,794.8,537.4,792.2,536z"/>
	<path class="st14" d="M579.9,632.7c8.7-5.5,12.2,6.7,5.9,9.7c-7.7,3.6-118.6,51.9-146.7,62.1c-19.6,7.1-59.7,22.3-105.9,17.2
		C381.9,718.6,573.7,636.7,579.9,632.7z"/>
	<path class="st14" d="M622.3,596.7c-3.6,2.3-4.2,3.6-5.3,8.3C610.8,601.4,617.3,596,622.3,596.7z"/>
	<path class="st14" d="M788.8,536.9c-3.6,2.3-4.2,3.6-5.3,8.3C779.9,540,783.8,536.2,788.8,536.9z"/>
</g>
</svg>
